# xmcd
#
# Track frame offsets:
#	150
#	14235
#	25285
#	37627
#	49810
#	61810
#	74512
#	86560
#	98062
#	109517
#
# Disc length: 1635 seconds
# Revision: 0
# Processed by: cddbd v1.5.2PL0 Copyright (c) Steve Scherf et al.
# Submitted via: dBpowerAMP V12.0
#
DISCID=7b06610a
DTITLE=B.B. King  - Boss of The Blues
DYEAR=1967
DGENRE=Blues
TTITLE0=Bad Breaks [1955]
TTITLE1=You Don´t Know [1956]
TTITLE2=Worry Worry Worry [1958]
TTITLE3=The Blues Has Got Me [1956]
TTITLE4=Please Accept My Love [1958]
TTITLE5=I Had A Woman (Ten Long Years) [1955]
TTITLE6=You Know I Go For You [1958]
TTITLE7=That´s How Much You Mean To Me [1959]
TTITLE8=Days Of Old [1958]
TTITLE9=Why Do Everything Happen To Me [1958]
EXTD=
EXTT0=
EXTT1=
EXTT2=
EXTT3=
EXTT4=
EXTT5=
EXTT6=
EXTT7=
EXTT8=
EXTT9=
PLAYORDER=
